<mxfile host="app.diagrams.net" modified="2021-06-05T11:45:49.202Z" agent="5.0 (Windows NT 10.0; Win64; x64) AppleWebKit/537.36 (KHTML, like Gecko) Chrome/91.0.4472.77 Safari/537.36 Edg/91.0.864.41" etag="t05uEx1pxj5DbQCIHy3c" version="14.7.3" type="github">
  <diagram id="C5RBs43oDa-KdzZeNtuy" name="Page-1">
    <mxGraphModel dx="862" dy="482" grid="1" gridSize="10" guides="1" tooltips="1" connect="1" arrows="1" fold="1" page="1" pageScale="1" pageWidth="827" pageHeight="1169" math="0" shadow="0">
      <root>
        <mxCell id="WIyWlLk6GJQsqaUBKTNV-0" />
        <mxCell id="WIyWlLk6GJQsqaUBKTNV-1" parent="WIyWlLk6GJQsqaUBKTNV-0" />
        <mxCell id="X8l9W6A8d1pBYQCeUAmH-1" value="Composition" style="rounded=0;whiteSpace=wrap;html=1;" vertex="1" parent="WIyWlLk6GJQsqaUBKTNV-1">
          <mxGeometry x="80" y="40" width="190" height="80" as="geometry" />
        </mxCell>
        <mxCell id="X8l9W6A8d1pBYQCeUAmH-2" value="Room" style="text;html=1;strokeColor=none;fillColor=none;align=center;verticalAlign=middle;whiteSpace=wrap;rounded=0;" vertex="1" parent="WIyWlLk6GJQsqaUBKTNV-1">
          <mxGeometry x="70" y="140" width="40" height="20" as="geometry" />
        </mxCell>
        <mxCell id="X8l9W6A8d1pBYQCeUAmH-4" value="Home" style="text;html=1;strokeColor=none;fillColor=none;align=center;verticalAlign=middle;whiteSpace=wrap;rounded=0;" vertex="1" parent="WIyWlLk6GJQsqaUBKTNV-1">
          <mxGeometry x="220" y="140" width="40" height="20" as="geometry" />
        </mxCell>
        <mxCell id="X8l9W6A8d1pBYQCeUAmH-5" value="" style="endArrow=diamondThin;endFill=1;endSize=24;html=1;" edge="1" parent="WIyWlLk6GJQsqaUBKTNV-1">
          <mxGeometry width="160" relative="1" as="geometry">
            <mxPoint x="120" y="149.5" as="sourcePoint" />
            <mxPoint x="220" y="149.5" as="targetPoint" />
          </mxGeometry>
        </mxCell>
        <mxCell id="X8l9W6A8d1pBYQCeUAmH-6" value="Nib" style="text;html=1;strokeColor=none;fillColor=none;align=center;verticalAlign=middle;whiteSpace=wrap;rounded=0;" vertex="1" parent="WIyWlLk6GJQsqaUBKTNV-1">
          <mxGeometry x="458" y="140" width="40" height="20" as="geometry" />
        </mxCell>
        <mxCell id="X8l9W6A8d1pBYQCeUAmH-7" value="Pen" style="text;html=1;strokeColor=none;fillColor=none;align=center;verticalAlign=middle;whiteSpace=wrap;rounded=0;" vertex="1" parent="WIyWlLk6GJQsqaUBKTNV-1">
          <mxGeometry x="608" y="140" width="40" height="20" as="geometry" />
        </mxCell>
        <mxCell id="X8l9W6A8d1pBYQCeUAmH-8" value="" style="endArrow=diamondThin;endFill=1;endSize=24;html=1;" edge="1" parent="WIyWlLk6GJQsqaUBKTNV-1">
          <mxGeometry width="160" relative="1" as="geometry">
            <mxPoint x="508" y="149.5" as="sourcePoint" />
            <mxPoint x="608" y="149.5" as="targetPoint" />
          </mxGeometry>
        </mxCell>
        <mxCell id="X8l9W6A8d1pBYQCeUAmH-12" value="Booking" style="text;html=1;strokeColor=none;fillColor=none;align=center;verticalAlign=middle;whiteSpace=wrap;rounded=0;" vertex="1" parent="WIyWlLk6GJQsqaUBKTNV-1">
          <mxGeometry x="70" y="180" width="40" height="20" as="geometry" />
        </mxCell>
        <mxCell id="X8l9W6A8d1pBYQCeUAmH-13" value="User" style="text;html=1;strokeColor=none;fillColor=none;align=center;verticalAlign=middle;whiteSpace=wrap;rounded=0;" vertex="1" parent="WIyWlLk6GJQsqaUBKTNV-1">
          <mxGeometry x="220" y="180" width="40" height="20" as="geometry" />
        </mxCell>
        <mxCell id="X8l9W6A8d1pBYQCeUAmH-14" value="" style="endArrow=diamondThin;endFill=1;endSize=24;html=1;" edge="1" parent="WIyWlLk6GJQsqaUBKTNV-1">
          <mxGeometry width="160" relative="1" as="geometry">
            <mxPoint x="120" y="189.5" as="sourcePoint" />
            <mxPoint x="220" y="189.5" as="targetPoint" />
          </mxGeometry>
        </mxCell>
        <mxCell id="X8l9W6A8d1pBYQCeUAmH-18" value="Aggregation&lt;br&gt;&lt;br&gt;Where two Classes can exist independently" style="rounded=0;whiteSpace=wrap;html=1;" vertex="1" parent="WIyWlLk6GJQsqaUBKTNV-1">
          <mxGeometry x="450" y="40" width="210" height="80" as="geometry" />
        </mxCell>
        <mxCell id="X8l9W6A8d1pBYQCeUAmH-19" value="Interface&lt;br&gt;&lt;br&gt;Collection of Methods&lt;br&gt;Shared Behaviors&lt;br&gt;Behaviors only&lt;br&gt;&lt;br&gt;A class have have &#39;n&#39; number of interfaces" style="rounded=0;whiteSpace=wrap;html=1;" vertex="1" parent="WIyWlLk6GJQsqaUBKTNV-1">
          <mxGeometry x="80" y="220" width="190" height="120" as="geometry" />
        </mxCell>
        <mxCell id="X8l9W6A8d1pBYQCeUAmH-20" value="Abstract Class&lt;br&gt;&lt;br&gt;Class - Real world Entity&lt;br&gt;- has attributes and methods&lt;br&gt;&lt;br&gt;A Super Class and&amp;nbsp;&lt;br&gt;If there are abstract methods ..." style="rounded=0;whiteSpace=wrap;html=1;" vertex="1" parent="WIyWlLk6GJQsqaUBKTNV-1">
          <mxGeometry x="450" y="220" width="210" height="120" as="geometry" />
        </mxCell>
        <mxCell id="X8l9W6A8d1pBYQCeUAmH-22" value="&lt;h1&gt;&lt;span style=&quot;font-size: 12px ; font-weight: normal&quot;&gt;Animals&lt;/span&gt;&lt;br&gt;&lt;/h1&gt;&lt;div&gt;IHunt&lt;/div&gt;&lt;div&gt;IEat&lt;/div&gt;&lt;div&gt;IMakeNoice&lt;/div&gt;" style="text;html=1;strokeColor=#82b366;fillColor=#d5e8d4;spacing=5;spacingTop=-20;whiteSpace=wrap;overflow=hidden;rounded=0;shadow=1;align=center;" vertex="1" parent="WIyWlLk6GJQsqaUBKTNV-1">
          <mxGeometry x="80" y="360" width="190" height="100" as="geometry" />
        </mxCell>
        <mxCell id="X8l9W6A8d1pBYQCeUAmH-23" value="&lt;h1&gt;&lt;span style=&quot;font-size: 12px ; font-weight: normal&quot;&gt;Animals&lt;/span&gt;&lt;br&gt;&lt;/h1&gt;&lt;div&gt;Tiger&lt;/div&gt;&lt;div&gt;Dog&lt;/div&gt;&lt;div&gt;Rat&lt;/div&gt;" style="text;html=1;strokeColor=#82b366;spacing=5;spacingTop=-20;whiteSpace=wrap;overflow=hidden;rounded=0;fillColor=#d5e8d4;shadow=1;align=center;" vertex="1" parent="WIyWlLk6GJQsqaUBKTNV-1">
          <mxGeometry x="458" y="360" width="190" height="100" as="geometry" />
        </mxCell>
      </root>
    </mxGraphModel>
  </diagram>
</mxfile>
